<svg xmlns="http://www.w3.org/2000/svg" xmlns:xlink="http://www.w3.org/1999/xlink" width="340" height="120" viewBox="0 0 340 120">
  <defs>
    <clipPath id="clip-path">
      <path id="Path_47" data-name="Path 47" d="M15.468-27.554c-.363,0-.62.743-.666.986h0a1.777,1.777,0,0,0,.4,1.684h0c.821.644,1.681,1.244,2.56,1.819h0c-4.3.193-8.622.2-12.924.372h0c-1.178.048-2.359.1-3.534.2h0c-.979.089-1,2.781-.124,2.7h0c5.229-.475,10.524-.4,15.77-.576h0L18.1-20.4h0q-1.329,1.078-2.661,2.153h0c-.661.533-.4,3.148.573,2.364h0q3.05-2.459,6.078-4.944h0c.541-.446.606-2.085-.047-2.477h0a61.012,61.012,0,0,1-6.369-4.165h0A.335.335,0,0,0,15.468-27.554Z" transform="translate(-0.539 27.554)" fill="#121e3c"/>
    </clipPath>
  </defs>
  <g id="Group_16" data-name="Group 16" transform="translate(-1070 -660)">
    <rect id="photo-of-man-reading-a-book-2574616" width="340" height="120" transform="translate(1070 660)" fill="#96d6d9"/>
    <text id="Stay_connected" data-name="Stay connected" transform="translate(1100 696)" fill="#121e3c" font-size="16" font-family="BebasNeueBook, Bebas Neue" letter-spacing="0.15em"><tspan x="0" y="0">Stay connected</tspan></text>
    <rect id="Rectangle_12" data-name="Rectangle 12" width="280" height="40" transform="translate(1100 710)" fill="#fff"/>
    <text id="Your_email_address" data-name="Your email address" transform="translate(1115 734)" fill="#121e3c" font-size="14" font-family="Montserrat-Regular, Montserrat"><tspan x="0" y="0">Your email address</tspan></text>
    <g id="Group_15" data-name="Group 15" transform="translate(1337.332 751.237)">
      <g id="Group_13" data-name="Group 13" transform="translate(0.539 -27.554)" clip-path="url(#clip-path)">
        <path id="Path_46" data-name="Path 46" d="M.468-27.756H22.606v11.908H.468Z" transform="translate(-0.5 27.665)" fill="#121e3c"/>
      </g>
    </g>
  </g>
</svg>
