<svg xmlns="http://www.w3.org/2000/svg" xmlns:xlink="http://www.w3.org/1999/xlink" width="500.21" height="349.191" viewBox="0 0 500.21 349.191">
  <defs>
    <clipPath id="clip-path">
      <rect width="500.21" height="349.191" fill="none"/>
    </clipPath>
  </defs>
  <g id="Group_16" data-name="Group 16" clip-path="url(#clip-path)">
    <g id="Group_16-2" data-name="Group 16" transform="translate(73.602 -19.473)">
      <g id="Group_10" data-name="Group 10" transform="translate(-73.602 19.473)">
        <g id="Group_9" data-name="Group 9" clip-path="url(#clip-path)">
          <g id="Group_15" data-name="Group 15" transform="translate(-0.012 0.007)">
            <g id="Group_9-2" data-name="Group 9" transform="translate(7.928 45.616)">
              <g id="Path_38" data-name="Path 38">
                <path id="Path_38-2" data-name="Path 38" d="M339.035,282.4l6.062,1.118,6.046,1.367,5.983,1.609,5.908,1.873q5.861,2.027,11.584,4.443,5.692,2.479,11.218,5.341,5.49,2.919,10.78,6.213,5.251,3.349,10.269,7.059,4.96,3.785,9.632,7.935l4.565,4.264,4.385,4.455-3.551,2.212c-5.322-12.8-13.352-24.358-22.366-35.1-9-10.792-18.871-20.925-28.046-31.92-9.2-10.953-17.924-22.673-22.851-37.094l-1.431-5.117c-.41-1.794-.749-3.677-1.119-5.51-.585-3.658-1.072-7.254-1.3-10.881a193.105,193.105,0,0,1-.306-21.606c.46-14.324,1.927-28.472,3.059-42.515a204.472,204.472,0,0,0,.781-20.805,35.54,35.54,0,0,0-6.227-18.126,39.874,39.874,0,0,0-33.978-16.769l-42.511-.512c-28.341-.291-56.681-.843-85.022-.919s-56.681-.422-85.022-.2c-28.341.1-56.681.153-85.022.514l-21.255.212-5.314.054-1.329.014c-.176,0-.543,0-.562.011l-.663.039-2.653.158a38.841,38.841,0,0,0-9.749,2.18c-12.742,4.354-22.689,15.783-24.964,28.8a50.038,50.038,0,0,0-.548,10.073l.11,10.629.162,21.256.323,42.511.407,85.022.092,21.256c.175,6.986-.488,14.63,1.281,20.113a35.647,35.647,0,0,0,9.575,16.234,38.773,38.773,0,0,0,16.451,9.421,38.46,38.46,0,0,0,9.472,1.391c3.383.086,7.041.034,10.548.057l21.256.035,42.511.071c28.341.021,56.681.077,85.022.366l85.022.659,84.887,1.035c6.492.011,11.473-5.379,14.832-11.224a81.4,81.4,0,0,0,7.448-19.446,192.57,192.57,0,0,0,5.645-41.866.39.39,0,0,1,.391-.388h0a.4.4,0,0,1,.387.388A194.1,194.1,0,0,1,335.2,325.2,83.969,83.969,0,0,1,328.2,345.6a32.446,32.446,0,0,1-6.664,8.946,18.214,18.214,0,0,1-4.888,3.2,16.41,16.41,0,0,1-5.735,1.34l-85.16,1.093-85.022.659c-28.341.286-56.681.345-85.022.366l-42.511.071-21.256.035c-3.578-.012-7.008.053-10.706-.024a46.721,46.721,0,0,1-11.5-1.65c-15.046-3.983-27.767-16.247-31.6-31.544a41.164,41.164,0,0,1-1.123-5.939c-.194-2.017-.237-3.37-.287-5.6l.047-10.628.092-21.256.407-85.022.322-42.511.162-21.256.11-10.629a55.669,55.669,0,0,1,.891-11.09,43.108,43.108,0,0,1,28.83-31.961,43.942,43.942,0,0,1,10.979-2.183l2.655-.1.664-.025.766,0,1.329.013,5.314.054,21.255.213c28.341.358,56.681.409,85.022.514,28.341.218,56.681-.115,85.022-.2s56.681-.629,85.022-.919l42.511-.512a58.315,58.315,0,0,1,11.168.751,46.6,46.6,0,0,1,10.815,3.523A44.19,44.19,0,0,1,347.482,97.88a42.2,42.2,0,0,1,7.556,21.509,207.962,207.962,0,0,1-.627,21.656c-.951,14.219-2.486,28.275-3.118,42.277a186.7,186.7,0,0,0,.09,20.879c.175,3.447.617,6.889,1.114,10.226l.934,4.916,1.383,5.132a87.514,87.514,0,0,0,8.856,18.212,176.7,176.7,0,0,0,12.44,16.758c8.936,10.805,18.618,21.236,27.509,32.436,8.917,11.142,17,23.314,22.267,36.867a2.13,2.13,0,0,1-3.536,2.23l-.015-.018-4.159-4.427-4.345-4.25q-4.46-4.136-9.2-7.959-4.765-3.794-9.786-7.261-5.055-3.409-10.347-6.474-5.32-3.006-10.841-5.651-5.546-2.584-11.26-4.793-5.745-2.134-11.614-3.937l-5.906-1.637-6-1.4a.391.391,0,0,1-.292-.47v0a.391.391,0,0,1,.45-.294" transform="translate(63.267 -79.036)" fill="#121e3c"/>
              </g>
            </g>
            <g id="Group_10-2" data-name="Group 10" transform="translate(5.688 43.376)">
              <g id="Path_39" data-name="Path 39">
                <path id="Path_39-2" data-name="Path 39" d="M-15.263,362.89c-1.379,0-2.787-.008-4.227-.038a48.945,48.945,0,0,1-12.048-1.73c-16.178-4.283-29.209-17.3-33.178-33.16a43.457,43.457,0,0,1-1.176-6.23c-.208-2.168-.253-3.635-.3-5.8l.139-31.943.407-85.023.483-63.773.11-10.635a57.81,57.81,0,0,1,.928-11.469A45.194,45.194,0,0,1-33.768,79.4a46.139,46.139,0,0,1,11.5-2.283l4.227-.137,27.931.279c24.1.3,48.594.388,72.285.47l12.723.044c19.611.152,39.547.037,58.828-.075q13.09-.076,26.179-.127c18.26-.05,36.831-.3,54.791-.544q15.107-.2,30.215-.375l42.507-.512a60.692,60.692,0,0,1,11.559.781,48.981,48.981,0,0,1,11.4,3.7A46.513,46.513,0,0,1,348.629,95.9a44.448,44.448,0,0,1,7.961,22.657,194.978,194.978,0,0,1-.525,20.288l-.1,1.648c-.381,5.713-.863,11.463-1.328,17.024-.693,8.285-1.41,16.853-1.787,25.217a185.219,185.219,0,0,0,.088,20.644c.183,3.6.676,7.22,1.087,9.987l.91,4.788,1.34,4.971a85.488,85.488,0,0,0,8.6,17.668,174.863,174.863,0,0,0,12.269,16.524c3.775,4.566,7.758,9.149,11.61,13.581,5.3,6.1,10.779,12.406,15.937,18.9,10.433,13.036,17.53,24.7,22.27,36.609l1.38,1.4-.785.489a4.374,4.374,0,0,1-6.727,4.191l-.654.408-.691-1.662-3.594-3.824-4.31-4.217c-2.885-2.673-5.942-5.317-9.042-7.816-3.117-2.481-6.367-4.894-9.653-7.163-3.292-2.219-6.73-4.37-10.2-6.379-3.465-1.958-7.068-3.835-10.685-5.569-3.615-1.684-7.357-3.277-11.1-4.724-3.745-1.391-7.611-2.7-11.463-3.886l-5.8-1.606-2.725-.637a196.728,196.728,0,0,1-4.21,39.556c-1.363,5.971-3.405,13.713-7.2,20.981a34.537,34.537,0,0,1-7.11,9.538,20.48,20.48,0,0,1-5.515,3.622,18.621,18.621,0,0,1-6.538,1.532l-.082,0-85.16,1.093-85.034.66c-26.96.272-53.493.343-85.037.365l-63.764.107c-1.278-.007-2.522,0-3.767.006Q-13.863,362.889-15.263,362.89ZM-34.875,84.542a40.66,40.66,0,0,0-24.849,29.39,53.512,53.512,0,0,0-.847,10.606l-.11,10.7-.483,63.76-.407,85.016-.139,31.883c.051,2.192.094,3.462.277,5.371a39.07,39.07,0,0,0,1.058,5.577c3.587,14.333,15.361,26.078,30,29.955A44.525,44.525,0,0,0-19.4,358.371c2.364.049,4.661.04,6.884.029,1.257,0,2.514-.009,3.79-.005l63.755-.107c31.533-.022,58.055-.093,85-.366l85.028-.66,56.746-.728-56.762-.692-85.012-.659c-29.351-.3-59.268-.347-85.006-.366l-63.769-.106c-1.253-.009-2.513-.006-3.772-.007-2.27,0-4.62,0-6.829-.051a40.7,40.7,0,0,1-10.014-1.472,41.145,41.145,0,0,1-17.407-9.967A37.918,37.918,0,0,1-56.938,326c-1.409-4.41-1.378-9.948-1.348-15.3.01-1.785.02-3.631-.024-5.389l-.093-21.3-.407-85.021-.485-63.76-.11-10.583a52.415,52.415,0,0,1,.574-10.482A40.176,40.176,0,0,1-34.875,84.542Zm23.652,265.68c.836,0,1.67,0,2.5.006l63.755.106c25.746.02,55.676.066,85.041.367l85.016.659,84.9,1.036H310c5.818,0,10.2-5.49,12.848-10.1,2.839-4.973,5.068-10.806,7.225-18.907a190.57,190.57,0,0,0,5.57-41.343,2.637,2.637,0,0,1,3.114-2.533h0l6.15,1.137,6.132,1.389,6.079,1.636,5.908,1.874c3.986,1.376,7.93,2.89,11.779,4.514,3.849,1.677,7.669,3.5,11.376,5.415,3.709,1.972,7.381,4.088,10.934,6.3,3.276,2.089,6.513,4.3,9.65,6.595-2.829-4.021-6.019-8.14-9.615-12.424-4.466-5.356-9.249-10.66-13.874-15.789-4.7-5.208-9.552-10.593-14.176-16.137-9.048-10.776-18.13-22.82-23.252-37.8l-.038-.122-1.456-5.222c-.29-1.264-.545-2.573-.791-3.839-.113-.578-.225-1.154-.341-1.726l-.016-.09c-.482-3.012-1.067-6.993-1.319-11.1a195.715,195.715,0,0,1-.309-21.838c.35-10.9,1.291-21.825,2.2-32.395q.441-5.114.861-10.206l.028-.392a198.949,198.949,0,0,0,.748-20.156,33.258,33.258,0,0,0-5.834-16.929,37.527,37.527,0,0,0-32.05-15.8l-.055,0h-.054l-42.511-.512q-15.062-.154-30.131-.375c-17.986-.244-36.585-.495-54.871-.545q-13.1-.04-26.2-.128c-19.273-.111-39.2-.226-58.8-.075l-13.09.046c-23.574.08-47.951.163-71.921.468l-28.358.286-3.314.2a36.569,36.569,0,0,0-9.117,2.049c-11.968,4.09-21.4,14.965-23.523,27.076a47.777,47.777,0,0,0-.516,9.582l0,.082.11,10.629.484,63.773.407,85.028.092,21.256c.045,1.78.035,3.661.025,5.48-.028,5.024-.056,10.22,1.149,13.954l.03.1a33.433,33.433,0,0,0,8.973,15.214,36.638,36.638,0,0,0,15.495,8.871,36.218,36.218,0,0,0,8.915,1.309c2.161.055,4.479.051,6.721.051ZM417.8,317.443l.158.148A158.145,158.145,0,0,0,401.187,292.6c-5.1-6.426-10.547-12.694-15.815-18.756-3.87-4.452-7.87-9.056-11.672-13.653a179.25,179.25,0,0,1-12.588-16.958,89.965,89.965,0,0,1-9.1-18.7l-.049-.158-1.421-5.3-.949-5c-.428-2.872-.944-6.655-1.136-10.442a189.49,189.49,0,0,1-.09-21.108c.381-8.436,1.1-17.047,1.8-25.373.463-5.543.943-11.274,1.321-16.938l.1-1.638a188.533,188.533,0,0,0,.522-19.776,39.919,39.919,0,0,0-7.152-20.314,42.014,42.014,0,0,0-16.483-13.8,44.455,44.455,0,0,0-10.294-3.353,56.253,56.253,0,0,0-10.674-.711l-42.549.512q-6.216.063-12.429.142,6.215.078,12.429.142l42.461.511a42.011,42.011,0,0,1,35.832,17.714,37.8,37.8,0,0,1,6.638,19.292,201.817,201.817,0,0,1-.754,20.678l-.029.414c-.276,3.426-.57,6.837-.865,10.254-.906,10.511-1.843,21.38-2.19,32.176a191.692,191.692,0,0,0,.3,21.377c.241,3.91.8,7.733,1.265,10.638.114.568.225,1.139.338,1.711.236,1.214.481,2.468.749,3.648l1.4,5c4.887,14.262,13.666,25.884,22.426,36.318,4.575,5.482,9.4,10.835,14.069,16.011,4.653,5.161,9.466,10.5,13.982,15.914A158.11,158.11,0,0,1,417.8,317.443Z" transform="translate(66.192 -76.111)" fill="#121e3c"/>
              </g>
            </g>
            <g id="Group_11" data-name="Group 11" transform="translate(11.797 2.235)">
              <g id="Path_40" data-name="Path 40">
                <path id="Path_40-2" data-name="Path 40" d="M-58.216,173.7a818.465,818.465,0,0,1,5.655-96.06c1.111-9.428,2.561-18.5,7.982-25.831C-35.77,39.9-19.721,36.557-5.369,34.361A1040.426,1040.426,0,0,1,199.325,23.48c24.6,1.124,52.961,3.248,78.168,14.255,27.1,11.831,46.546,33.761,50.742,57.231,2.6,14.553,5.871,78.184,5.118,91.782v.019c-1.354,21.344,16.746,37.358,34.29,52.868,4.178,3.694,8.5,7.515,12.427,11.306a137.683,137.683,0,0,1,39.282,71.687,1.925,1.925,0,0,1-1.1,2.145,1.947,1.947,0,0,1-2.341-.561,132.4,132.4,0,0,0-53.847-40.389c-2.934-1.2-6.328-2.44-9.5-1.98-6.731.977-10.223,9.282-9.611,16.424a63.176,63.176,0,0,0,1.975,10.013,58.766,58.766,0,0,1,2.184,13.459c-.11,12.179-8.869,24.475-22.319,31.323-11.7,5.958-24.926,7.644-38.582,8.973-82.758,8.053-171.69,6.534-271.881-4.641-16.856-1.881-32.951-4.433-44.579-14.86-12.431-11.141-16.009-28.52-18.39-43.936a819.53,819.53,0,0,1-9.582-124.9m387.8,6.979c0-21.082-3.043-73.054-5.186-85.027-3.973-22.2-22.541-43.028-48.468-54.347-24.6-10.74-52.531-12.822-76.783-13.931A1036.727,1036.727,0,0,0-4.779,38.21c-13.584,2.08-28.734,5.2-36.662,15.917-4.855,6.565-6.2,15.084-7.251,23.971a815.751,815.751,0,0,0,3.906,219.908c2.275,14.748,5.668,31.345,17.141,41.627,10.767,9.657,26.2,12.077,42.409,13.886,99.917,11.146,188.58,12.662,271.066,4.636,13.272-1.292,26.1-2.917,37.2-8.567,12.169-6.2,20.091-17.143,20.189-27.886a53.629,53.629,0,0,0-2.068-12.471,66.857,66.857,0,0,1-2.077-10.632c-.791-9.1,3.836-19.292,12.929-20.613,4.147-.6,8.131.833,11.541,2.227a136.725,136.725,0,0,1,50.182,35.333,134.266,134.266,0,0,0-36.362-61.8c-3.862-3.733-8.149-7.525-12.3-11.191-18.248-16.13-37.106-32.807-35.6-56.035.084-1.49.122-3.47.122-5.842" transform="translate(58.216 -22.4)" fill="#121e3c"/>
              </g>
            </g>
            <g id="Group_12" data-name="Group 12" transform="translate(9.557)">
              <g id="Path_41" data-name="Path 41">
                <path id="Path_41-2" data-name="Path 41" d="M177.644,368.667c-51.623,0-106.029-3.236-164.241-9.73-17.234-1.923-33.707-4.55-45.827-15.419-12.976-11.629-16.667-29.461-19.109-45.261a824.37,824.37,0,0,1-9.608-125.24h0a823.8,823.8,0,0,1,5.67-96.322c1.147-9.735,2.653-19.117,8.4-26.9,9.316-12.6,25.879-16.068,40.673-18.332a1044.849,1044.849,0,0,1,205.135-10.9c24.8,1.133,53.4,3.277,78.963,14.44,27.78,12.127,47.725,34.692,52.051,58.891,2.607,14.6,5.9,78.423,5.153,92.237l0,.1c-1.286,20.262,16.417,35.912,33.537,51.047l.113.1c4.16,3.679,8.463,7.483,12.388,11.275A139.332,139.332,0,0,1,420.864,321.5a4.187,4.187,0,0,1-7.391,3.418,130.423,130.423,0,0,0-52.934-39.7c-2.663-1.088-5.719-2.217-8.331-1.838-5.259.764-8.228,7.863-7.7,14.016a60.928,60.928,0,0,0,1.9,9.594,61.371,61.371,0,0,1,2.267,14.04c-.116,13.055-9.358,26.126-23.543,33.349-12.052,6.138-25.505,7.857-39.381,9.206C250.934,366.97,215.015,368.667,177.644,368.667ZM151.426,27.861A1036.956,1036.956,0,0,0-5.125,39.743c-13.137,2.011-27.775,5-35.2,15.034-4.537,6.134-5.818,14.332-6.827,22.9a813.57,813.57,0,0,0,3.895,219.3c2.216,14.363,5.5,30.506,16.422,40.3,10.271,9.212,25.331,11.561,41.163,13.328,99.753,11.129,188.267,12.645,270.6,4.633,13.053-1.271,25.658-2.865,36.4-8.334,11.43-5.82,18.875-15.99,18.965-25.91a52.052,52.052,0,0,0-2-11.9,69.071,69.071,0,0,1-2.132-10.931c-.886-10.187,4.423-21.569,14.834-23.08,4.7-.682,9.028.865,12.71,2.371a139.876,139.876,0,0,1,44.451,29.094,132.049,132.049,0,0,0-33.037-51.881c-3.867-3.738-8.307-7.661-12.224-11.123-18.647-16.483-37.929-33.527-36.35-57.859.077-1.363.116-3.285.116-5.694,0-20.223-2.977-72.491-5.15-84.633C317.668,73.885,299.6,53.7,274.352,42.675c-24.245-10.587-51.936-12.647-75.989-13.747Q174.932,27.861,151.426,27.861Zm260.462,288.22q2.227,2.491,4.332,5.1-.705-3.325-1.569-6.593Z" transform="translate(61.141 -19.482)" fill="#121e3c"/>
              </g>
            </g>
            <g id="Group_13" data-name="Group 13" transform="translate(2.253 45.734)">
              <g id="Path_42" data-name="Path 42">
                <path id="Path_42-2" data-name="Path 42" d="M286.061,357.548c.876.091,1.755.162,2.628.23q11.768.919,23.558,1.523c7.841.4,16.661.342,22.252-5.172,6.577-6.485,9.405-17.242,7.353-26.25-1.032-4.531,0,0-2.368-14.006.423-2.79-3.221-5.47-3.078-8.036a17.659,17.659,0,0,1,2.073-4.887c3.6-5.659,9.958-8.256,16.748-9.524l47.785,20.03s-67.591-85.8-70.61-91.236-9.219-111.963-9.219-111.963-2.368-7.366-13.527-29.068c0,0-287.084,4.407-324.228,4.787s-39.176,7.411-50.541,30.233-2.03,202.394-.62,213.929,30.428,27.684,31.6,31.544c1.128,3.727,262.571,2.29,320.2-2.135" transform="translate(70.676 -79.19)" fill="#121e3c"/>
              </g>
            </g>
            <g id="Group_14" data-name="Group 14" transform="translate(0 43.472)">
              <g id="Path_43" data-name="Path 43">
                <path id="Path_43-2" data-name="Path 43" d="M59.171,363.367c-19.54,0-37.155-.091-51.622-.273-42.954-.538-43.862-1.313-44.49-3.354-.662-1.067-4.852-4.207-8.23-6.737-10-7.49-22.44-16.814-23.475-25.282-.7-5.695-3.409-53.895-4.5-102.953-1.429-64.5.367-102.269,5.335-112.246L-66.558,110C-55.967,88.627-52.4,81.426-15.284,81.046c36.714-.377,321.346-4.744,324.217-4.787l1.392-.021.636,1.237c11.116,21.616,13.569,29.1,13.668,29.407l.087.271.016.284c2.354,40.445,6.868,106.36,8.963,111.048,2.384,4.287,51.621,67.069,70.39,90.894l5.356,6.8L354.3,293.065c-7.153,1.441-11.938,4.192-14.618,8.4a15.33,15.33,0,0,0-1.718,3.955,8.388,8.388,0,0,0,1.159,2.253c.938,1.489,2.09,3.32,1.934,5.442,1.147,6.8,1.481,9.166,1.643,10.311a27.907,27.907,0,0,0,.65,3.265c2.279,10.007-.921,21.4-7.965,28.343-6.259,6.174-15.639,6.236-23.939,5.814-7.862-.4-15.808-.917-23.619-1.527-.824-.064-1.654-.13-2.483-.214-31.684,2.411-117.379,3.723-181.243,4.116C88.433,363.318,73.3,363.367,59.171,363.367Zm-92.436-6.172c7.392,1.384,65.854,2.024,141.4,1.52,62.5-.414,146.38-1.735,177.07-4.091l.2-.016.2.021c.856.09,1.716.159,2.569.224,7.772.608,15.678,1.119,23.5,1.52,7.349.378,15.6.366,20.564-4.529,5.888-5.8,8.66-15.738,6.743-24.156a31.742,31.742,0,0,1-.718-3.635c-.161-1.144-.5-3.523-1.676-10.5l-.06-.355.054-.355c.1-.645-.618-1.783-1.25-2.787-.917-1.457-1.956-3.11-1.849-5.038l.012-.218.054-.211a19.864,19.864,0,0,1,2.337-5.508c3.481-5.465,9.443-8.907,18.244-10.551l.659-.123,40.428,16.947c-16.149-20.538-62.868-80.07-65.462-84.739-3.092-5.569-8.4-94.044-9.479-112.612-.5-1.419-3.371-9.078-12.666-27.244-21.756.334-287.45,4.4-322.847,4.766-34.367.352-37.107,5.885-47.305,26.468l-1.252,2.524c-10.822,21.732-2.02,199.417-.4,212.658.8,6.572,13.388,16,21.714,22.241C-37.314,353.289-34.469,355.463-33.265,357.194Z" transform="translate(73.618 -76.237)" fill="#121e3c"/>
              </g>
            </g>
          </g>
        </g>
      </g>
    </g>
  </g>
</svg>
