<svg xmlns="http://www.w3.org/2000/svg" width="17.142" height="51.894" viewBox="0 0 17.142 51.894">
  <path id="Path_47" data-name="Path 47" d="M22.2-27.554c-.527,0-.9,1.078-.967,1.431h0a2.578,2.578,0,0,0,.574,2.443h0c1.191.935,2.44,1.805,3.715,2.639h0c-6.245.28-12.512.287-18.756.54h-20c-1.71.07-3.423.14-5.129.294h0c-1.42.13-1.456,4.036-.18,3.921h0c7.589-.689,35.272-.581,42.885-.835h0q.839-.028,1.679-.058h0q-1.929,1.565-3.862,3.125h0c-.959.774-.578,4.569.832,3.431h0q4.426-3.569,8.821-7.174h0c.786-.647.88-3.026-.068-3.594h0a88.539,88.539,0,0,1-9.242-6.044h0A.486.486,0,0,0,22.2-27.554Z" transform="translate(-10.412 19.461) rotate(90)" fill="#96d6d9"/>
</svg>
