<svg xmlns="http://www.w3.org/2000/svg" xmlns:xlink="http://www.w3.org/1999/xlink" width="99" height="62" viewBox="0 0 99 62">
  <defs>
    <clipPath id="clip-path">
      <path id="Path_65" data-name="Path 65" d="M23.024-87.744A66.516,66.516,0,0,0,6.5-85.921h0a37.151,37.151,0,0,0-4.353,1.394h0c-.423.166-.326,1.631.185,1.43h0a48.042,48.042,0,0,1,13.9-2.9h0c-2.293.693-4.566,1.464-6.834,2.24h0c-1.279.438-2.558.877-3.84,1.306h0c-.4.135-.3,1.565.092,1.457h0A42.489,42.489,0,0,1,13.493-82.2h0c1.789-.141,3.582-.225,5.376-.276h0l-1.619.355h0a4.224,4.224,0,0,0-1.031.241h0l-.008,0h0v.006h0a.535.535,0,0,0-.3.361h0c-.062.294-.118,1.059.3,1.116h0a.189.189,0,0,0,.138-.036h0l.18-.042h0c.247-.056.5-.111.743-.166h0q1.205-.266,2.411-.528h0c1.741-.38,3.482-.757,5.222-1.141h0a4.224,4.224,0,0,0,1.027-.239h.014l0-.007a.547.547,0,0,0,.3-.36h0c0-.018.008-.038.012-.059h0v-.693c-.043-.191-.136-.344-.312-.364h0a14.539,14.539,0,0,0-1.659,0h0q-.909,0-1.819.009h0c-1.379.012-2.758.036-4.137.08h0c-1.557.05-3.116.123-4.672.243h0c1.827-.6,3.663-1.161,5.518-1.655h0c1.274-.339,2.557-.643,3.847-.9h0c.469-.1.495-1.484,0-1.484h0Zm2.839,3.731c.064-.03.068-.016,0,0m-9.57,3.59a.177.177,0,0,1-.049.019h0c-.006,0,.009-.009.049-.019" transform="translate(-1.879 87.744)" fill="#fff"/>
    </clipPath>
  </defs>
  <g id="Group_49" data-name="Group 49" transform="translate(-40 -97)">
    <text id="A_Nudge_Education_Initiative" data-name="A Nudge Education Initiative" transform="translate(40 116)" fill="#fff" font-size="14" font-family="BebasNeueBook, Bebas Neue" letter-spacing="0.15em"><tspan x="0" y="11">A Nudge </tspan><tspan x="0" y="25">Education </tspan><tspan x="0" y="39">Initiative</tspan></text>
    <g id="Group_50" data-name="Group 50" transform="translate(38.121 184.744)">
      <g id="Group_49-2" data-name="Group 49" transform="translate(1.879 -87.744)" clip-path="url(#clip-path)">
        <path id="Path_64" data-name="Path 64" d="M1.28-88.219H41.088v12.034H1.28Z" transform="translate(-1.33 88.179)" fill="#fff"/>
      </g>
    </g>
  </g>
</svg>
