<svg xmlns="http://www.w3.org/2000/svg" xmlns:xlink="http://www.w3.org/1999/xlink" width="101.247" height="40" viewBox="0 0 101.247 40">
  <defs>
    <clipPath id="clip-path">
      <path id="Path_37" data-name="Path 37" d="M0-71.654H101.247v-40H0Z" transform="translate(0 111.654)" fill="#121e3c"/>
    </clipPath>
  </defs>
  <g id="Group_8" data-name="Group 8" transform="translate(0 111.654)">
    <g id="Group_7" data-name="Group 7" transform="translate(0 -111.654)" clip-path="url(#clip-path)">
      <g id="Group_5" data-name="Group 5" transform="translate(23.89 33.347)">
        <path id="Path_35" data-name="Path 35" d="M0-.15V6.364H1.7V2.508l1.31,3.215H4.274l1.31-3.215.009,3.856H7.285V-.15H5.213L3.643,3.456,2.072-.15ZM13.957,6.364H15.89V-.15H13.957Zm0-6.514,8.6,0V6.364h1.775V2.74L27.1,6.364h1.645V-.15H26.975V3.493L24.216-.15Zm15.7,0H35.412V6.364H38.2c2.147,0,3.568-1.3,3.568-3.262a3.189,3.189,0,0,0-3.5-3.252m.056,5h-.976V1.374h.883A1.579,1.579,0,0,1,39.8,3.121,1.528,1.528,0,0,1,38.321,4.85M52.752,2.006,53.467.52a5.248,5.248,0,0,0-2.723-.753c-1.626,0-2.695.8-2.695,2.053,0,2.3,3.4,1.673,3.4,2.657,0,.3-.26.437-.669.437a4.449,4.449,0,0,1-2.425-.994l-.725,1.468A5.311,5.311,0,0,0,50.763,6.42c1.459,0,2.685-.66,2.685-2.044,0-2.351-3.4-1.784-3.4-2.741,0-.241.214-.353.539-.353a5.407,5.407,0,0,1,2.165.725" transform="translate(0 0.233)" fill="#121e3c"/>
      </g>
      <g id="Group_6" data-name="Group 6" transform="translate(0 0)">
        <path id="Path_36" data-name="Path 36" d="M-15.713-47.14h4.2V-73.159h-3.643v15.574l-4.2-15.574h-5.129V-47.14h3.68V-65.985ZM-1.33-73.159v19.811c0,4.163,2.082,6.542,6.1,6.542s6.1-2.379,6.1-6.542V-73.159H7v20.071c0,1.858-.818,2.527-2.119,2.527s-2.119-.669-2.119-2.527V-73.159ZM21.083-47.14h6.467c4.089,0,6.1-2.267,6.1-6.43V-66.728c0-4.163-2.007-6.43-6.1-6.43H21.083Zm6.393-22.3c1.3,0,2.081.669,2.081,2.527v13.53c0,1.858-.78,2.527-2.081,2.527h-2.3V-69.442ZM49.814-57.919h1.859v4.795c0,1.859-.818,2.527-2.119,2.527s-2.119-.669-2.119-2.527v-14.05c0-1.859.818-2.565,2.119-2.565s2.119.706,2.119,2.565v2.788h3.866v-2.527c0-4.163-2.081-6.542-6.1-6.542s-6.1,2.379-6.1,6.542v13.53c0,4.163,2.081,6.542,6.1,6.542s6.1-2.379,6.1-6.542v-8.252H49.814ZM69.7-69.442h7.062v-3.717H65.611V-47.14H76.762v-3.717H69.7v-7.62h5.612v-3.717H69.7Z" transform="translate(24.485 73.456)" fill="#121e3c"/>
      </g>
    </g>
  </g>
</svg>
