<svg xmlns="http://www.w3.org/2000/svg" width="245.503" height="66.106" viewBox="0 0 245.503 66.106">
  <path id="Path_62" data-name="Path 62" d="M309.776,526.619a34.979,34.979,0,0,0-10.72-1.428,1.292,1.292,0,0,0-.278.065c-1.386.406-29.831,2.011-31.285,2.1-.3.019-15.715,1.113-16.02,1.132.136-.08,15.376-2.1,15.53-2.186,6.631-.791,29.265-2.275,30.345-3.1,1.85-1.41,2.078-2.636.443-3.349a24.122,24.122,0,0,0-10.72-1.428,1.281,1.281,0,0,0-.278.065,19.32,19.32,0,0,1-4.278.6c-3.368.208-6.737.421-10.107.681-3.746.288-7.47.386-11.234.709-3.8.326-7.646.385-11.469.469-6.45.14-12.978.849-19.465,1.133-4.3.187-72.338,1.762-76.651,2.064-2.306.161-4.573.646-6.914.7a34.878,34.878,0,0,0-8.872.862c-.7.2-1.716.387-2.276-.16a2.129,2.129,0,0,0-1.049-.06,94.743,94.743,0,0,1-10.092.861c-4.255.113-8.3,1.841-12.577,1.424a1.1,1.1,0,0,0-.284.043c-4.47.884-9.005.874-13.509,1.365-5.178.566-10.389.909-15.574.97-3.424.041-5.14,1.048-5.477,2.983a1.246,1.246,0,0,1-.651.887c-2.187,1.436-2.387,3.01-2,4.583.207.842,1.116,1.047,2.676.767.887-.159,1.7-.4,2.67-.5,1.9-.206,3.765-.211,5.62-.379,1.494-.135,2.96-.152,4.421-.152a2.987,2.987,0,0,0-.75,1.561,1.246,1.246,0,0,1-.651.887,4.879,4.879,0,0,0-1.849,1.959l-.115,0c-2.015.072-4.037.133-6.024.1a5.773,5.773,0,0,0-4.152,1.416c-2.1,1.822-2.735,3.872-3.463,5.806-.662,1.758-.053,3.574.159,5.345.076.633,1.028,1.037,2.228.695,1.329-.38-1.539,3.871-3.655,4a5.6,5.6,0,0,0-3.515,1.374c-2.248,1.809-1.453,3.682-2.284,5.51-.759,1.669.111,3.251-.024,4.9-.111,1.356,1.085,1.78,3.7,1.467,2.9-.348,35.527-2.533,38.419-2.977-.078.464-29.9,2.912-30.108,3.372-.759,1.669.111,3.251-.024,4.9-.111,1.356,1.085,1.78,3.7,1.467,3.07-.368,6.155-.562,9.216-1.065a8.416,8.416,0,0,1,3.045-.113,8.033,8.033,0,0,0,3.6-.039c2.191-.359,4.486.265,6.6-.774a2.069,2.069,0,0,1,1.1.007c1.7.59,3.663.187,5.565.062,2.892-.191,5.808-1.031,8.68-.615a3.046,3.046,0,0,0,.574-.045c14.346-1.151,28.652-1.8,42.922-2.251,8.481-.267,80.722-1.923,89.136-1.775,4.356.077,8.818-.23,13.143.011,2.6.145,4.983.688,7.741.573,2.531-.106,2.518-.027,3.786-1.416a1.25,1.25,0,0,1,.419-.249c.651-.264.645-.561.327-.843-1.136-1.012-.355-1.991.831-3,.887-.756,1.768-1.521,1.355-2.434-.161-.356.2-.836.764-1.044,2-.731,2.575-3.544,3.146-4.545.856-1.5-.394-.783-2.861-1.291a43.538,43.538,0,0,0-5.858-.861c-1.924-.129.507.115-1.436.025a3.311,3.311,0,0,0,.943-.7c.392.005.782.014,1.165.036,1.584.091,4.318.22,5.15-.581.955-.919,2.3-1.684,2.792-2.685.463-.943,1.541-3.224,1.626-3.469.457-1.339.094-2.876,1.6-3.871,2.566-1.7,5.122-4.171,1.8-4.767a85.656,85.656,0,0,0-12.9-.741,4.52,4.52,0,0,1-2.405-.361c1.61-.385,3.329,1.317,4.669,1.287,5.931-.137,11.514-2.3,17.407-2.2,1.837.033,2.532-.329,3.268-1.33.147-.2.074-.492.5-.571,2.091-.381,1.363-1.382,1.039-1.717-.917-.953.217-1.7.868-2.509a3.5,3.5,0,0,1,2.778-1.127,3.453,3.453,0,0,0,2.617-.709C307.349,531.687,308.858,530.666,309.776,526.619Zm-82.445,3.038a.215.215,0,0,1,.169.093.116.116,0,0,1-.038.144l-.339.043c-.035-.019-.068-.043-.1-.06C227,529.75,227.107,529.667,227.331,529.657ZM135.9,532.872c.191.031.188.087,0,.152-.046-.022-.125-.042-.128-.069S135.884,532.869,135.9,532.872Zm-25.457,44.993a5.819,5.819,0,0,1-.74-.025,1.254,1.254,0,0,1,.372-.184,7.154,7.154,0,0,1,.815-.009A1.647,1.647,0,0,1,110.447,577.866ZM114.78,575c-.507-.008-.765-.175-.8-.451.1-.083.2-.232.289-.236a.7.7,0,0,1,.779.466C115.11,574.9,114.988,575.006,114.78,575Zm6.3-1.385c-.074.188-.389.209-.638.175a6.089,6.089,0,0,1-.737-.2c.4-.087.644-.162.892-.189C120.885,573.376,121.159,573.427,121.084,573.618Zm1.692,3.207a1.018,1.018,0,0,1-.512.093c-.125-.009-.2-.114-.3-.176a1.617,1.617,0,0,1,.459-.17C122.687,576.565,122.992,576.614,122.776,576.825Zm2.652-3.453a4.355,4.355,0,0,1-1.66.124c-.077-.006-.129-.059-.321-.153a1.714,1.714,0,0,1,.33-.209,4.013,4.013,0,0,1,1.632,0C125.624,573.17,125.633,573.308,125.429,573.372Zm4.212-.323c-.238.023-.374-.028-.352-.153.007-.035.128-.09.207-.106.241-.045.377.01.346.143C129.834,572.971,129.711,573.01,129.641,573.049Zm3.9-.275a.39.39,0,0,1-.012-.125c.173-.027.347-.045.521-.065l.012.139C133.894,572.741,133.718,572.762,133.543,572.773Zm13.9-1.155-3.38.528C145.126,571.444,146.3,571.7,147.44,571.619Zm.2-.024a18.622,18.622,0,0,1,4.616-.212C150.687,571.767,149.066,572.605,147.643,571.6Zm8.145-.076a.268.268,0,0,1-.189-.054c-.022-.031.036-.086.059-.13a.823.823,0,0,1,.232-.02C156.048,571.388,156.006,571.471,155.788,571.519Zm119.63-31.13c-.121-.053-.351-.1-.341-.161.035-.2.331-.228.575-.182.115.022.152.138.225.211Z" transform="matrix(1, 0.017, -0.017, 1, -55.179, -519.431)" fill="#96d6d9"/>
</svg>
